<mxfile host="app.diagrams.net" modified="2022-03-10T03:38:14.254Z" agent="5.0 (Windows NT 10.0; Win64; x64) AppleWebKit/537.36 (KHTML, like Gecko) Chrome/99.0.4844.51 Safari/537.36" etag="w2_HHAb_JmFTCSwP4TsN" version="17.1.0" type="github">
  <diagram id="EE5q9Zw0YjwjQQa2TiFf" name="Page-1">
    <mxGraphModel dx="1038" dy="539" grid="1" gridSize="10" guides="1" tooltips="1" connect="1" arrows="1" fold="1" page="1" pageScale="1" pageWidth="827" pageHeight="1169" math="0" shadow="0">
      <root>
        <mxCell id="0" />
        <mxCell id="1" parent="0" />
        <mxCell id="SJcmdIhSEkrMvVB994n2-13" value="" style="triangle;whiteSpace=wrap;html=1;sketch=0;rotation=-90;fillColor=#E6E6E6;" vertex="1" parent="1">
          <mxGeometry x="150" y="-50" width="200" height="400" as="geometry" />
        </mxCell>
        <mxCell id="SJcmdIhSEkrMvVB994n2-14" value="" style="triangle;whiteSpace=wrap;html=1;sketch=0;rotation=90;fillColor=#808080;" vertex="1" parent="1">
          <mxGeometry x="150" y="150" width="200" height="400" as="geometry" />
        </mxCell>
        <mxCell id="SJcmdIhSEkrMvVB994n2-15" value="" style="triangle;whiteSpace=wrap;html=1;sketch=0;rotation=-90;fillColor=#E6E6E6;" vertex="1" parent="1">
          <mxGeometry x="175" y="25" width="150" height="300" as="geometry" />
        </mxCell>
        <mxCell id="SJcmdIhSEkrMvVB994n2-16" value="" style="triangle;whiteSpace=wrap;html=1;sketch=0;rotation=90;fillColor=#808080;" vertex="1" parent="1">
          <mxGeometry x="175" y="175" width="150" height="300" as="geometry" />
        </mxCell>
        <mxCell id="SJcmdIhSEkrMvVB994n2-18" value="" style="ellipse;whiteSpace=wrap;html=1;aspect=fixed;sketch=0;fillColor=#fff2cc;strokeColor=#d6b656;" vertex="1" parent="1">
          <mxGeometry x="200" y="200" width="100" height="100" as="geometry" />
        </mxCell>
        <mxCell id="SJcmdIhSEkrMvVB994n2-19" value="Remote" style="text;html=1;strokeColor=none;fillColor=none;align=center;verticalAlign=middle;whiteSpace=wrap;rounded=0;sketch=0;" vertex="1" parent="1">
          <mxGeometry x="220" y="60" width="60" height="30" as="geometry" />
        </mxCell>
        <mxCell id="SJcmdIhSEkrMvVB994n2-20" value="Local" style="text;html=1;strokeColor=none;fillColor=none;align=center;verticalAlign=middle;whiteSpace=wrap;rounded=0;sketch=0;" vertex="1" parent="1">
          <mxGeometry x="220" y="120" width="60" height="30" as="geometry" />
        </mxCell>
        <mxCell id="SJcmdIhSEkrMvVB994n2-21" value="Domain" style="text;html=1;strokeColor=none;fillColor=none;align=center;verticalAlign=middle;whiteSpace=wrap;rounded=0;sketch=0;" vertex="1" parent="1">
          <mxGeometry x="220" y="235" width="60" height="30" as="geometry" />
        </mxCell>
        <mxCell id="SJcmdIhSEkrMvVB994n2-22" value="Ports" style="text;html=1;strokeColor=none;fillColor=none;align=center;verticalAlign=middle;whiteSpace=wrap;rounded=0;sketch=0;" vertex="1" parent="1">
          <mxGeometry x="220" y="340" width="60" height="30" as="geometry" />
        </mxCell>
        <mxCell id="SJcmdIhSEkrMvVB994n2-23" value="Adapters" style="text;html=1;strokeColor=none;fillColor=none;align=center;verticalAlign=middle;whiteSpace=wrap;rounded=0;sketch=0;" vertex="1" parent="1">
          <mxGeometry x="220" y="410" width="60" height="30" as="geometry" />
        </mxCell>
        <mxCell id="SJcmdIhSEkrMvVB994n2-24" value="Aggregates" style="rounded=0;whiteSpace=wrap;html=1;sketch=0;fillColor=#fff2cc;strokeColor=#d6b656;" vertex="1" parent="1">
          <mxGeometry x="480" y="220" width="240" height="60" as="geometry" />
        </mxCell>
        <mxCell id="SJcmdIhSEkrMvVB994n2-25" value="Domain Services" style="rounded=0;whiteSpace=wrap;html=1;sketch=0;fillColor=#fff2cc;strokeColor=#d6b656;" vertex="1" parent="1">
          <mxGeometry x="760" y="220" width="230" height="60" as="geometry" />
        </mxCell>
        <mxCell id="SJcmdIhSEkrMvVB994n2-26" value="Controllers" style="rounded=0;whiteSpace=wrap;html=1;sketch=0;fillColor=#E6E6E6;" vertex="1" parent="1">
          <mxGeometry x="480" y="45" width="120" height="60" as="geometry" />
        </mxCell>
        <mxCell id="SJcmdIhSEkrMvVB994n2-27" value="Resources" style="rounded=0;whiteSpace=wrap;html=1;sketch=0;fillColor=#E6E6E6;" vertex="1" parent="1">
          <mxGeometry x="610" y="45" width="120" height="60" as="geometry" />
        </mxCell>
        <mxCell id="SJcmdIhSEkrMvVB994n2-28" value="Event Subscribers" style="rounded=0;whiteSpace=wrap;html=1;sketch=0;fillColor=#E6E6E6;" vertex="1" parent="1">
          <mxGeometry x="740" y="45" width="120" height="60" as="geometry" />
        </mxCell>
        <mxCell id="SJcmdIhSEkrMvVB994n2-29" value="Providers" style="rounded=0;whiteSpace=wrap;html=1;sketch=0;fillColor=#E6E6E6;" vertex="1" parent="1">
          <mxGeometry x="870" y="45" width="120" height="60" as="geometry" />
        </mxCell>
        <mxCell id="SJcmdIhSEkrMvVB994n2-30" value="Application Services" style="rounded=0;whiteSpace=wrap;html=1;sketch=0;fillColor=#E6E6E6;" vertex="1" parent="1">
          <mxGeometry x="480" y="115" width="240" height="60" as="geometry" />
        </mxCell>
        <mxCell id="SJcmdIhSEkrMvVB994n2-31" value="Message Contracts" style="rounded=0;whiteSpace=wrap;html=1;sketch=0;fillColor=#E6E6E6;" vertex="1" parent="1">
          <mxGeometry x="760" y="115" width="230" height="60" as="geometry" />
        </mxCell>
        <mxCell id="SJcmdIhSEkrMvVB994n2-32" value="Clients" style="rounded=0;whiteSpace=wrap;html=1;sketch=0;fillColor=#999999;" vertex="1" parent="1">
          <mxGeometry x="480" y="310" width="140" height="60" as="geometry" />
        </mxCell>
        <mxCell id="SJcmdIhSEkrMvVB994n2-33" value="Repositories" style="rounded=0;whiteSpace=wrap;html=1;sketch=0;fillColor=#999999;" vertex="1" parent="1">
          <mxGeometry x="660" y="310" width="160" height="60" as="geometry" />
        </mxCell>
        <mxCell id="SJcmdIhSEkrMvVB994n2-34" value="Event Publishers" style="rounded=0;whiteSpace=wrap;html=1;sketch=0;fillColor=#999999;" vertex="1" parent="1">
          <mxGeometry x="850" y="310" width="140" height="60" as="geometry" />
        </mxCell>
        <mxCell id="SJcmdIhSEkrMvVB994n2-35" value="Client Adapters" style="rounded=0;whiteSpace=wrap;html=1;sketch=0;fillColor=#999999;" vertex="1" parent="1">
          <mxGeometry x="480" y="395" width="140" height="60" as="geometry" />
        </mxCell>
        <mxCell id="SJcmdIhSEkrMvVB994n2-36" value="Repository Adapters" style="rounded=0;whiteSpace=wrap;html=1;sketch=0;fillColor=#999999;" vertex="1" parent="1">
          <mxGeometry x="660" y="395" width="160" height="60" as="geometry" />
        </mxCell>
        <mxCell id="SJcmdIhSEkrMvVB994n2-37" value="Event Publisher Adapters" style="rounded=0;whiteSpace=wrap;html=1;sketch=0;fillColor=#999999;" vertex="1" parent="1">
          <mxGeometry x="850" y="395" width="140" height="60" as="geometry" />
        </mxCell>
      </root>
    </mxGraphModel>
  </diagram>
</mxfile>
